# xmcd CD database file
#
# Track frame offsets:
#	150
#	19280
#	56285
#	74420
#	98947
#	119952
#	148960
#	163980
#	184010
#	210640
#
# Disc length: 3089 seconds
#
# Revision: 1
# Processed by: cddbd v1.5.1PL0 Copyright (c) Steve Scherf et al.
# Submitted via: CDex 1.51
#
DISCID=9f0c0f0a
DTITLE=The Brazz Brothers and Povl Dissing - Aftenvind
DYEAR=2000
DGENRE=Jazz
TTITLE0=Aldrig Før
TTITLE1=Da Jeg Mødte Dig
TTITLE2=Aftenvind
TTITLE3=Sorte Sol (Tango Jalousie)
TTITLE4=Pusteøvelse
TTITLE5=Hymne Til Natten
TTITLE6=Vals Med Vampyr
TTITLE7=Pjerrot
TTITLE8=Skynd Dig Langsomt
TTITLE9=Go' Nu Nat
EXTD=YEAR: 2000
EXTT0=
EXTT1=
EXTT2=
EXTT3=
EXTT4=
EXTT5=
EXTT6=
EXTT7=
EXTT8=
EXTT9=
PLAYORDER=
